<?xml version="1.0" encoding="UTF-8" standalone="no"?>
<!-- Created with Inkscape (http://www.inkscape.org/) -->

<svg
   xmlns:dc="http://purl.org/dc/elements/1.1/"
   xmlns:cc="http://creativecommons.org/ns#"
   xmlns:rdf="http://www.w3.org/1999/02/22-rdf-syntax-ns#"
   xmlns:svg="http://www.w3.org/2000/svg"
   xmlns="http://www.w3.org/2000/svg"
   xmlns:sodipodi="http://sodipodi.sourceforge.net/DTD/sodipodi-0.dtd"
   xmlns:inkscape="http://www.inkscape.org/namespaces/inkscape"
   width="472.50018"
   height="472.50018"
   id="svg5625"
   version="1.1"
   inkscape:version="0.48.3.1 r9886"
   sodipodi:docname="New document 28">
  <defs
     id="defs5627" />
  <sodipodi:namedview
     id="base"
     pagecolor="#ffffff"
     bordercolor="#666666"
     borderopacity="1"
     inkscape:pageopacity="0"
     inkscape:pageshadow="2"
     inkscape:zoom="0.79286962"
     inkscape:cx="138.51961"
     inkscape:cy="236.85074"
     inkscape:document-units="px"
     inkscape:current-layer="layer1"
     showgrid="false"
     fit-margin-top="0"
     fit-margin-left="0"
     fit-margin-right="0"
     fit-margin-bottom="0"
     inkscape:window-width="1462"
     inkscape:window-height="760"
     inkscape:window-x="0"
     inkscape:window-y="52"
     inkscape:window-maximized="0" />
  <metadata
     id="metadata5630">
    <rdf:RDF>
      <cc:Work
         rdf:about="">
        <dc:format>image/svg+xml</dc:format>
        <dc:type
           rdf:resource="http://purl.org/dc/dcmitype/StillImage" />
        <dc:title></dc:title>
      </cc:Work>
    </rdf:RDF>
  </metadata>
  <g
     inkscape:label="Layer 1"
     inkscape:groupmode="layer"
     id="layer1"
     transform="translate(-145.83836,-204.7597)">
    <path
       style="fill:#e7b41b;fill-opacity:1;fill-rule:evenodd;stroke:#e7b41b;stroke-width:2.25019312px;stroke-linecap:butt;stroke-linejoin:miter;stroke-opacity:1"
       d="m 382.08846,205.8848 c -129.8559,0 -235.125,105.2691 -235.125,235.125 0,53.3049 17.72922,102.43686 47.625,141.875 l 4.46875,-0.5 c 42.9994,-5.11954 71.79405,-15.94842 76.65625,-28.78125 3.4017,-8.97806 -0.31755,-19.98632 -11.09375,-32.71875 -10.3609,-12.24181 -13.8216,-19.62161 -15.375,-33 -1.0174,-8.76267 0.7562,-13.52556 7.5,-20.125 13.5856,-13.29476 39.60075,-21.25018 106.03125,-32.4375 17.8816,-3.01137 36.0298,-6.41785 40.3125,-7.5625 12.3778,-3.30825 14.5773,-6.47532 7.5,-10.84375 -4.2091,-2.59805 -8.69205,-3.87924 -34.28125,-9.875 -40.6424,-9.52286 -53.5,-16.43175 -53.5,-28.6875 0,-11.70663 14.97115,-18.0046 59.40625,-25 27.007,-4.2517 35.91205,-6.76084 36.40625,-10.25 0.5011,-3.53777 -6.2954,-9.4017 -14.75,-12.71875 -3.8976,-1.52915 -7.0625,-2.91616 -7.0625,-3.09375 0,-0.17758 2.1375,-0.0802 4.75,0.21875 29.6055,3.38727 47.0877,8.20013 48.75,13.4375 1.3953,4.39621 -3.24,6.97068 -30,16.5 -25.0914,8.93513 -33.7565,13.31961 -36.5625,18.5625 -3.8472,7.18873 6.1467,11.05185 55.5625,21.5 46.83264,9.90197 61.19867,13.79301 73.875,20 5.77581,2.82814 10.625,7.34828 10.625,9.9375 0,9.02607 -13.40135,14.04149 -66.75,24.96875 -65.5538,13.42724 -78.8932,22.37473 -67.625,45.40625 3.3812,6.91073 13.4483,17.08174 31.875,32.28125 33.6393,27.74787 45.31245,46.39856 44.34375,70.78125 -0.3046,7.66826 -0.80405,9.56311 -4.21875,16.46875 -9.0412,18.28439 -37.9562,38.96035 -75.625,54.09375 -4.99892,2.00827 -9.50285,3.99417 -10.34375,4.5625 2.19325,0.0605 4.41714,0.125 6.625,0.125 129.8559,0 235.125,-105.2691 235.125,-235.125 0,-129.8559 -105.2691,-235.125 -235.125,-235.125 z"
       id="path5652"
       inkscape:connector-curvature="0" />
  </g>
</svg>
